<svg xmlns="http://www.w3.org/2000/svg" xmlns:xlink="http://www.w3.org/1999/xlink" xmlns:lucid="lucid" width="1681" height="1505"><g transform="translate(200.5 -199.5)" lucid:page-tab-id="0_0"><path d="M160 608a8 8 0 0 1 8-8h184a8 8 0 0 1 8 8v216a8 8 0 0 1-8 8H168a8 8 0 0 1-8-8z" fill="#fff"/><path d="M160 640v-32a8 8 0 0 1 8-8h184a8 8 0 0 1 8 8v32" fill="#e3fae3"/><path d="M160 608a8 8 0 0 1 8-8h184a8 8 0 0 1 8 8v216a8 8 0 0 1-8 8H168a8 8 0 0 1-8-8zM160 640h200M220 640v192" stroke="#3a414a" fill="none"/><use xlink:href="#a" transform="matrix(1,0,0,1,170,600) translate(60.27499999999999 23.6)"/><use xlink:href="#b" transform="matrix(1,0,0,1,165,642.5) translate(13 17.1)"/><use xlink:href="#c" transform="matrix(1,0,0,1,225,642.5) translate(0 17.1)"/><use xlink:href="#d" transform="matrix(1,0,0,1,165,674.5) translate(13.524999999999999 17.1)"/><use xlink:href="#e" transform="matrix(1,0,0,1,225,674.5) translate(0 17.1)"/><use xlink:href="#f" transform="matrix(1,0,0,1,225,706.5) translate(0 17.1)"/><use xlink:href="#g" transform="matrix(1,0,0,1,225,738.5) translate(0 17.1)"/><use xlink:href="#h" transform="matrix(1,0,0,1,225,770.5) translate(0 17.1)"/><use xlink:href="#i" transform="matrix(1,0,0,1,225,802.5) translate(0 17.1)"/><path d="M-200 624a8 8 0 0 1 8-8H-8a8 8 0 0 1 8 8v184a8 8 0 0 1-8 8h-184a8 8 0 0 1-8-8z" fill="#fff"/><path d="M-200 656v-32a8 8 0 0 1 8-8H-8a8 8 0 0 1 8 8v32" fill="#e3fae3"/><path d="M-200 624a8 8 0 0 1 8-8H-8a8 8 0 0 1 8 8v184a8 8 0 0 1-8 8h-184a8 8 0 0 1-8-8zM-200 656H0M-140 656v160" stroke="#3a414a" fill="none"/><use xlink:href="#j" transform="matrix(1,0,0,1,-190,615.9999999999999) translate(48.574999999999996 23.6)"/><use xlink:href="#b" transform="matrix(1,0,0,1,-195,658.4999999999999) translate(13 17.1)"/><use xlink:href="#k" transform="matrix(1,0,0,1,-135,658.4999999999999) translate(0 17.1)"/><use xlink:href="#d" transform="matrix(1,0,0,1,-195,690.4999999999999) translate(13.524999999999999 17.1)"/><use xlink:href="#l" transform="matrix(1,0,0,1,-135,690.4999999999999) translate(0 17.1)"/><use xlink:href="#m" transform="matrix(1,0,0,1,-135,722.4999999999999) translate(0 17.1)"/><use xlink:href="#n" transform="matrix(1,0,0,1,-135,754.4999999999999) translate(0 17.1)"/><use xlink:href="#o" transform="matrix(1,0,0,1,-135,786.4999999999999) translate(0 17.1)"/><path d="M640 608a8 8 0 0 1 8-8h184a8 8 0 0 1 8 8v248a8 8 0 0 1-8 8H648a8 8 0 0 1-8-8z" fill="#fff"/><path d="M640 640v-32a8 8 0 0 1 8-8h184a8 8 0 0 1 8 8v32" fill="#e3fae3"/><path d="M640 608a8 8 0 0 1 8-8h184a8 8 0 0 1 8 8v248a8 8 0 0 1-8 8H648a8 8 0 0 1-8-8zM640 640h200M700 640v224" stroke="#3a414a" fill="none"/><use xlink:href="#p" transform="matrix(1,0,0,1,650,600) translate(54.125 23.6)"/><use xlink:href="#b" transform="matrix(1,0,0,1,645,642.5) translate(13 17.1)"/><use xlink:href="#q" transform="matrix(1,0,0,1,705,642.5) translate(0 17.1)"/><use xlink:href="#d" transform="matrix(1,0,0,1,645,674.5) translate(13.524999999999999 17.1)"/><use xlink:href="#l" transform="matrix(1,0,0,1,705,674.5) translate(0 17.1)"/><use xlink:href="#d" transform="matrix(1,0,0,1,645,706.5) translate(13.524999999999999 17.1)"/><use xlink:href="#r" transform="matrix(1,0,0,1,705,706.5) translate(0 17.1)"/><use xlink:href="#d" transform="matrix(1,0,0,1,645,738.5) translate(13.524999999999999 17.1)"/><use xlink:href="#s" transform="matrix(1,0,0,1,705,738.5) translate(0 17.1)"/><use xlink:href="#t" transform="matrix(1,0,0,1,705,770.5) translate(0 17.1)"/><use xlink:href="#u" transform="matrix(1,0,0,1,705,802.5) translate(0 17.1)"/><use xlink:href="#v" transform="matrix(1,0,0,1,705,834.5) translate(0 17.1)"/><path d="M640 1068a8 8 0 0 1 8-8h184a8 8 0 0 1 8 8v152a8 8 0 0 1-8 8H648a8 8 0 0 1-8-8z" fill="#fff"/><path d="M640 1100v-32a8 8 0 0 1 8-8h184a8 8 0 0 1 8 8v32" fill="#e3fae3"/><path d="M640 1068a8 8 0 0 1 8-8h184a8 8 0 0 1 8 8v152a8 8 0 0 1-8 8H648a8 8 0 0 1-8-8zM640 1100h200M700 1100v128" stroke="#3a414a" fill="none"/><use xlink:href="#w" transform="matrix(1,0,0,1,650,1060) translate(53.525 23.6)"/><use xlink:href="#b" transform="matrix(1,0,0,1,645,1102.5) translate(13 17.1)"/><use xlink:href="#x" transform="matrix(1,0,0,1,705,1102.5) translate(0 17.1)"/><use xlink:href="#y" transform="matrix(1,0,0,1,705,1134.5) translate(0 17.1)"/><use xlink:href="#z" transform="matrix(1,0,0,1,705,1166.5) translate(0 17.1)"/><use xlink:href="#A" transform="matrix(1,0,0,1,705,1198.5) translate(0 17.1)"/><path d="M400 208a8 8 0 0 1 8-8h184a8 8 0 0 1 8 8v184a8 8 0 0 1-8 8H408a8 8 0 0 1-8-8z" fill="#fff"/><path d="M400 240v-32a8 8 0 0 1 8-8h184a8 8 0 0 1 8 8v32" fill="#e3fae3"/><path d="M400 208a8 8 0 0 1 8-8h184a8 8 0 0 1 8 8v184a8 8 0 0 1-8 8H408a8 8 0 0 1-8-8zM400 240h200M460 240v160" stroke="#3a414a" fill="none"/><use xlink:href="#B" transform="matrix(1,0,0,1,410,200) translate(64.6 23.6)"/><use xlink:href="#b" transform="matrix(1,0,0,1,405,242.5) translate(13 17.1)"/><use xlink:href="#C" transform="matrix(1,0,0,1,465,242.5) translate(0 17.1)"/><use xlink:href="#D" transform="matrix(1,0,0,1,465,274.5) translate(0 17.1)"/><use xlink:href="#E" transform="matrix(1,0,0,1,465,306.5) translate(0 17.1)"/><use xlink:href="#h" transform="matrix(1,0,0,1,465,338.5) translate(0 17.1)"/><use xlink:href="#F" transform="matrix(1,0,0,1,465,370.5) translate(0 17.1)"/><path d="M1080 592a8 8 0 0 1 8-8h204a8 8 0 0 1 8 8v248a8 8 0 0 1-8 8h-204a8 8 0 0 1-8-8z" fill="#fff"/><path d="M1080 624v-32a8 8 0 0 1 8-8h204a8 8 0 0 1 8 8v32" fill="#e3fae3"/><path d="M1080 592a8 8 0 0 1 8-8h204a8 8 0 0 1 8 8v248a8 8 0 0 1-8 8h-204a8 8 0 0 1-8-8zM1080 624h220M1140 624v224" stroke="#3a414a" fill="none"/><use xlink:href="#G" transform="matrix(1,0,0,1,1090,584) translate(63.05 23.6)"/><use xlink:href="#b" transform="matrix(1,0,0,1,1085,626.5) translate(13 17.1)"/><use xlink:href="#H" transform="matrix(1,0,0,1,1145,626.5) translate(0 17.1)"/><use xlink:href="#d" transform="matrix(1,0,0,1,1085,658.5) translate(13.524999999999999 17.1)"/><use xlink:href="#I" transform="matrix(1,0,0,1,1145,658.5) translate(0 17.1)"/><use xlink:href="#J" transform="matrix(1,0,0,1,1145,690.5) translate(0 17.1)"/><use xlink:href="#K" transform="matrix(1,0,0,1,1145,722.5) translate(0 17.1)"/><use xlink:href="#L" transform="matrix(1,0,0,1,1145,754.5) translate(0 17.1)"/><use xlink:href="#t" transform="matrix(1,0,0,1,1145,786.5) translate(0 17.1)"/><use xlink:href="#M" transform="matrix(1,0,0,1,1145,818.5) translate(0 17.1)"/><path d="M1120 1036a8 8 0 0 1 8-8h344a8 8 0 0 1 8 8v184a8 8 0 0 1-8 8h-344a8 8 0 0 1-8-8z" fill="#fff"/><path d="M1120 1068v-32a8 8 0 0 1 8-8h344a8 8 0 0 1 8 8v32" fill="#e3fae3"/><path d="M1120 1036a8 8 0 0 1 8-8h344a8 8 0 0 1 8 8v184a8 8 0 0 1-8 8h-344a8 8 0 0 1-8-8zM1120 1068h360M1180 1068v160" stroke="#3a414a" fill="none"/><use xlink:href="#N" transform="matrix(1,0,0,1,1130,1028) translate(107.19999999999999 23.6)"/><use xlink:href="#b" transform="matrix(1,0,0,1,1125,1070.5) translate(13 17.1)"/><use xlink:href="#O" transform="matrix(1,0,0,1,1185,1070.5) translate(0 17.1)"/><use xlink:href="#d" transform="matrix(1,0,0,1,1125,1102.5) translate(13.524999999999999 17.1)"/><use xlink:href="#r" transform="matrix(1,0,0,1,1185,1102.5) translate(0 17.1)"/><use xlink:href="#P" transform="matrix(1,0,0,1,1185,1134.5) translate(0 17.1)"/><use xlink:href="#Q" transform="matrix(1,0,0,1,1185,1166.5) translate(0 17.1)"/><use xlink:href="#R" transform="matrix(1,0,0,1,1185,1198.5) translate(0 17.1)"/><path d="M597.18 1448a8 8 0 0 1 8-8h269.64a8 8 0 0 1 8 8v248a8 8 0 0 1-8 8H605.18a8 8 0 0 1-8-8z" fill="#fff"/><path d="M597.18 1480v-32a8 8 0 0 1 8-8h269.64a8 8 0 0 1 8 8v32" fill="#e3fae3"/><path d="M597.18 1448a8 8 0 0 1 8-8h269.64a8 8 0 0 1 8 8v248a8 8 0 0 1-8 8H605.18a8 8 0 0 1-8-8zM597.18 1480h285.64M657.18 1480v224" stroke="#3a414a" fill="none"/><use xlink:href="#S" transform="matrix(1,0,0,1,607.1842176509172,1440) translate(62.675 23.6)"/><use xlink:href="#b" transform="matrix(1,0,0,1,602.1842176509172,1482.5) translate(13 17.1)"/><use xlink:href="#T" transform="matrix(1,0,0,1,662.1842176509172,1482.5) translate(0 17.1)"/><use xlink:href="#d" transform="matrix(1,0,0,1,602.1842176509172,1514.5) translate(13.524999999999999 17.1)"/><use xlink:href="#U" transform="matrix(1,0,0,1,662.1842176509172,1514.5) translate(0 17.1)"/><use xlink:href="#f" transform="matrix(1,0,0,1,662.1842176509172,1546.5) translate(0 17.1)"/><use xlink:href="#i" transform="matrix(1,0,0,1,662.1842176509172,1578.5) translate(0 17.1)"/><use xlink:href="#y" transform="matrix(1,0,0,1,662.1842176509172,1610.5) translate(0 17.1)"/><use xlink:href="#V" transform="matrix(1,0,0,1,662.1842176509172,1642.5) translate(0 17.1)"/><use xlink:href="#z" transform="matrix(1,0,0,1,662.1842176509172,1674.5) translate(0 17.1)"/><path d="M380.5 720h219M360.5 720h20m-10 10v-20m10 20v-20" stroke="#3a414a" fill="none"/><path d="M639.27 720h-20m20-10l-20 10m20 10l-20-10m0 0c0 5.52-4.47 10-10 10-5.52 0-10-4.48-10-10s4.48-10 10-10c5.53 0 10 4.48 10 10z" stroke="#3a414a" fill="#fff"/><path d="M740 904.5v135" stroke="#3a414a" fill="none"/><path d="M740 864.72v20m-10-20l10 20m10-20l-10 20m10 10c0 5.53-4.48 10-10 10s-10-4.47-10-10c0-5.52 4.48-10 10-10s10 4.48 10 10z" stroke="#3a414a" fill="#fff"/><path d="M740 1059.5v-20m10 10h-20m20-10h-20M40.5 720.02h99" stroke="#3a414a" fill="none"/><path d="M.72 720.02h20m-20 10l20-10m-20-10l20 10m20 0c0 5.52-4.47 10-10 10-5.52 0-10-4.48-10-10s4.48-10 10-10c5.53 0 10 4.48 10 10z" stroke="#3a414a" fill="#fff"/><path d="M159.5 720.02h-20m10-10v20m-10-20v20M740 1419.5v-171M740 1439.28v-20m10 20l-10-20m-10 20l10-20m10 0h-20M740 1228.5v20m-10-10h20m-20 10h20M860.5 1148.02h119.48a.02.02 0 0 0 .02-.02.02.02 0 0 1 .02 0h119.48M840.5 1148.02h20m-10 10v-20m10 20v-20M1119.28 1148h-20m20-10l-20 10m20 10l-20-10m0-10v20M620.5 320H728a12 12 0 0 1 12 12v227.5M600.5 320h20m-10 10v-20m10 20v-20" stroke="#3a414a" fill="none"/><path d="M740 599.28v-20m10 20l-10-20m-10 20l10-20m10-10c0 5.52-4.48 10-10 10s-10-4.48-10-10c0-5.53 4.48-10 10-10s10 4.47 10 10z" stroke="#3a414a" fill="#fff"/><path d="M860.5 720H960v.02h99.5M840.5 720h20m-10 10v-20m10 20v-20M1079.28 720.02h-20m20-10l-20 10m20 10l-20-10m0-10v20M260 559.5V332a12 12 0 0 1 12-12h107.5" stroke="#3a414a" fill="none"/><path d="M260 599.28v-20m10 20l-10-20m-10 20l10-20m10-10c0 5.52-4.48 10-10 10s-10-4.48-10-10c0-5.53 4.48-10 10-10s10 4.47 10 10z" stroke="#3a414a" fill="#fff"/><path d="M399.5 320h-20m10-10v20m-10-20v20" stroke="#3a414a" fill="none"/><defs><path fill="#3a414a" d="M136-208V0H84v-208H4v-40h212v40h-80" id="W"/><path fill="#3a414a" d="M110-194c64 0 96 36 96 99 0 64-35 99-97 99-61 0-95-36-95-99 0-62 34-99 96-99zm-1 164c35 0 45-28 45-65 0-40-10-65-43-65-34 0-45 26-45 65 0 36 10 65 43 65" id="X"/><path fill="#3a414a" d="M85 4C-2 5 27-109 22-190h50c7 57-23 150 33 157 60-5 35-97 40-157h50l1 190h-47c-2-12 1-28-3-38-12 25-28 42-61 42" id="Y"/><path fill="#3a414a" d="M135-150c-39-12-60 13-60 57V0H25l-1-190h47c2 13-1 29 3 40 6-28 27-53 61-41v41" id="Z"/><path fill="#3a414a" d="M25-224v-37h50v37H25zM25 0v-190h50V0H25" id="aa"/><path fill="#3a414a" d="M137-138c1-29-70-34-71-4 15 46 118 7 119 86 1 83-164 76-172 9l43-7c4 19 20 25 44 25 33 8 57-30 24-41C81-84 22-81 20-136c-2-80 154-74 161-7" id="ab"/><path fill="#3a414a" d="M115-3C79 11 28 4 28-45v-112H4v-33h27l15-45h31v45h36v33H77v99c-1 23 16 31 38 25v30" id="ac"/><g id="a"><use transform="matrix(0.05,0,0,0.05,0,0)" xlink:href="#W"/><use transform="matrix(0.05,0,0,0.05,9.600000000000001,0)" xlink:href="#X"/><use transform="matrix(0.05,0,0,0.05,20.550000000000004,0)" xlink:href="#Y"/><use transform="matrix(0.05,0,0,0.05,31.500000000000007,0)" xlink:href="#Z"/><use transform="matrix(0.05,0,0,0.05,38.50000000000001,0)" xlink:href="#aa"/><use transform="matrix(0.05,0,0,0.05,43.50000000000001,0)" xlink:href="#ab"/><use transform="matrix(0.05,0,0,0.05,53.5,0)" xlink:href="#ac"/></g><path d="M30-248c87 1 191-15 191 75 0 78-77 80-158 76V0H30v-248zm33 125c57 0 124 11 124-50 0-59-68-47-124-48v98" id="ad"/><path d="M194 0L95-120 63-95V0H30v-248h33v124l119-124h40L117-140 236 0h-42" id="ae"/><g id="b"><use transform="matrix(0.05,0,0,0.05,0,0)" xlink:href="#ad"/><use transform="matrix(0.05,0,0,0.05,12,0)" xlink:href="#ae"/></g><path fill="#3a414a" d="M24 0v-248h52V0H24" id="af"/><path fill="#3a414a" d="M24-248c120-7 223 5 221 122C244-46 201 0 124 0H24v-248zM76-40c74 7 117-18 117-86 0-67-45-88-117-82v168" id="ag"/><g id="c"><use transform="matrix(0.05,0,0,0.05,0,0)" xlink:href="#W"/><use transform="matrix(0.05,0,0,0.05,9.600000000000001,0)" xlink:href="#X"/><use transform="matrix(0.05,0,0,0.05,20.550000000000004,0)" xlink:href="#Y"/><use transform="matrix(0.05,0,0,0.05,31.500000000000007,0)" xlink:href="#Z"/><use transform="matrix(0.05,0,0,0.05,38.50000000000001,0)" xlink:href="#aa"/><use transform="matrix(0.05,0,0,0.05,43.50000000000001,0)" xlink:href="#ab"/><use transform="matrix(0.05,0,0,0.05,53.5,0)" xlink:href="#ac"/><use transform="matrix(0.05,0,0,0.05,59.45000000000002,0)" xlink:href="#af"/><use transform="matrix(0.05,0,0,0.05,64.45000000000002,0)" xlink:href="#ag"/></g><path d="M63-220v92h138v28H63V0H30v-248h175v28H63" id="ah"/><g id="d"><use transform="matrix(0.05,0,0,0.05,0,0)" xlink:href="#ah"/><use transform="matrix(0.05,0,0,0.05,10.950000000000001,0)" xlink:href="#ae"/></g><path fill="#3a414a" d="M205 0l-28-72H64L36 0H1l101-248h38L239 0h-34zm-38-99l-47-123c-12 45-31 82-46 123h93" id="ai"/><path fill="#3a414a" d="M177-190C167-65 218 103 67 71c-23-6-38-20-44-43l32-5c15 47 100 32 89-28v-30C133-14 115 1 83 1 29 1 15-40 15-95c0-56 16-97 71-98 29-1 48 16 59 35 1-10 0-23 2-32h30zM94-22c36 0 50-32 50-73 0-42-14-75-50-75-39 0-46 34-46 75s6 73 46 73" id="aj"/><path fill="#3a414a" d="M100-194c63 0 86 42 84 106H49c0 40 14 67 53 68 26 1 43-12 49-29l28 8c-11 28-37 45-77 45C44 4 14-33 15-96c1-61 26-98 85-98zm52 81c6-60-76-77-97-28-3 7-6 17-6 28h103" id="ak"/><path fill="#3a414a" d="M117-194c89-4 53 116 60 194h-32v-121c0-31-8-49-39-48C34-167 62-67 57 0H25l-1-190h30c1 10-1 24 2 32 11-22 29-35 61-36" id="al"/><path fill="#3a414a" d="M59-47c-2 24 18 29 38 22v24C64 9 27 4 27-40v-127H5v-23h24l9-43h21v43h35v23H59v120" id="am"/><path fill="#3a414a" d="M33 0v-248h34V0H33" id="an"/><path fill="#3a414a" d="M30-248c118-7 216 8 213 122C240-48 200 0 122 0H30v-248zM63-27c89 8 146-16 146-99s-60-101-146-95v194" id="ao"/><g id="e"><use transform="matrix(0.05,0,0,0.05,0,0)" xlink:href="#ai"/><use transform="matrix(0.05,0,0,0.05,12,0)" xlink:href="#aj"/><use transform="matrix(0.05,0,0,0.05,22,0)" xlink:href="#ak"/><use transform="matrix(0.05,0,0,0.05,32,0)" xlink:href="#al"/><use transform="matrix(0.05,0,0,0.05,42,0)" xlink:href="#am"/><use transform="matrix(0.05,0,0,0.05,47,0)" xlink:href="#an"/><use transform="matrix(0.05,0,0,0.05,52,0)" xlink:href="#ao"/></g><path fill="#3a414a" d="M190 0L58-211 59 0H30v-248h39L202-35l-2-213h31V0h-41" id="ap"/><path fill="#3a414a" d="M141-36C126-15 110 5 73 4 37 3 15-17 15-53c-1-64 63-63 125-63 3-35-9-54-41-54-24 1-41 7-42 31l-33-3c5-37 33-52 76-52 45 0 72 20 72 64v82c-1 20 7 32 28 27v20c-31 9-61-2-59-35zM48-53c0 20 12 33 32 33 41-3 63-29 60-74-43 2-92-5-92 41" id="aq"/><path fill="#3a414a" d="M210-169c-67 3-38 105-44 169h-31v-121c0-29-5-50-35-48C34-165 62-65 56 0H25l-1-190h30c1 10-1 24 2 32 10-44 99-50 107 0 11-21 27-35 58-36 85-2 47 119 55 194h-31v-121c0-29-5-49-35-48" id="ar"/><g id="f"><use transform="matrix(0.05,0,0,0.05,0,0)" xlink:href="#ap"/><use transform="matrix(0.05,0,0,0.05,12.950000000000001,0)" xlink:href="#aq"/><use transform="matrix(0.05,0,0,0.05,22.950000000000003,0)" xlink:href="#ar"/><use transform="matrix(0.05,0,0,0.05,37.900000000000006,0)" xlink:href="#ak"/></g><path fill="#3a414a" d="M30 0v-248h187v28H63v79h144v27H63v87h162V0H30" id="as"/><path fill="#3a414a" d="M24-231v-30h32v30H24zM24 0v-190h32V0H24" id="at"/><path fill="#3a414a" d="M24 0v-261h32V0H24" id="au"/><g id="g"><use transform="matrix(0.05,0,0,0.05,0,0)" xlink:href="#as"/><use transform="matrix(0.05,0,0,0.05,12,0)" xlink:href="#ar"/><use transform="matrix(0.05,0,0,0.05,26.950000000000003,0)" xlink:href="#aq"/><use transform="matrix(0.05,0,0,0.05,36.95,0)" xlink:href="#at"/><use transform="matrix(0.05,0,0,0.05,40.900000000000006,0)" xlink:href="#au"/></g><path fill="#3a414a" d="M30-248c87 1 191-15 191 75 0 78-77 80-158 76V0H30v-248zm33 125c57 0 124 11 124-50 0-59-68-47-124-48v98" id="av"/><path fill="#3a414a" d="M106-169C34-169 62-67 57 0H25v-261h32l-1 103c12-21 28-36 61-36 89 0 53 116 60 194h-32v-121c2-32-8-49-39-48" id="aw"/><path fill="#3a414a" d="M100-194c62-1 85 37 85 99 1 63-27 99-86 99S16-35 15-95c0-66 28-99 85-99zM99-20c44 1 53-31 53-75 0-43-8-75-51-75s-53 32-53 75 10 74 51 75" id="ax"/><path fill="#3a414a" d="M-5 72V49h209v23H-5" id="ay"/><path fill="#3a414a" d="M84 4C-5 8 30-112 23-190h32v120c0 31 7 50 39 49 72-2 45-101 50-169h31l1 190h-30c-1-10 1-25-2-33-11 22-28 36-60 37" id="az"/><path fill="#3a414a" d="M115-194c53 0 69 39 70 98 0 66-23 100-70 100C84 3 66-7 56-30L54 0H23l1-261h32v101c10-23 28-34 59-34zm-8 174c40 0 45-34 45-75 0-40-5-75-45-74-42 0-51 32-51 76 0 43 10 73 51 73" id="aA"/><path fill="#3a414a" d="M114-163C36-179 61-72 57 0H25l-1-190h30c1 12-1 29 2 39 6-27 23-49 58-41v29" id="aB"/><g id="h"><use transform="matrix(0.05,0,0,0.05,0,0)" xlink:href="#av"/><use transform="matrix(0.05,0,0,0.05,12,0)" xlink:href="#aw"/><use transform="matrix(0.05,0,0,0.05,22,0)" xlink:href="#ax"/><use transform="matrix(0.05,0,0,0.05,32,0)" xlink:href="#al"/><use transform="matrix(0.05,0,0,0.05,42,0)" xlink:href="#ak"/><use transform="matrix(0.05,0,0,0.05,52,0)" xlink:href="#ay"/><use transform="matrix(0.05,0,0,0.05,62,0)" xlink:href="#ap"/><use transform="matrix(0.05,0,0,0.05,74.95,0)" xlink:href="#az"/><use transform="matrix(0.05,0,0,0.05,84.95,0)" xlink:href="#ar"/><use transform="matrix(0.05,0,0,0.05,99.9,0)" xlink:href="#aA"/><use transform="matrix(0.05,0,0,0.05,109.9,0)" xlink:href="#ak"/><use transform="matrix(0.05,0,0,0.05,119.9,0)" xlink:href="#aB"/></g><path fill="#3a414a" d="M85-194c31 0 48 13 60 33l-1-100h32l1 261h-30c-2-10 0-23-3-31C134-8 116 4 85 4 32 4 16-35 15-94c0-66 23-100 70-100zm9 24c-40 0-46 34-46 75 0 40 6 74 45 74 42 0 51-32 51-76 0-42-9-74-50-73" id="aC"/><path fill="#3a414a" d="M135-143c-3-34-86-38-87 0 15 53 115 12 119 90S17 21 10-45l28-5c4 36 97 45 98 0-10-56-113-15-118-90-4-57 82-63 122-42 12 7 21 19 24 35" id="aD"/><g id="i"><use transform="matrix(0.05,0,0,0.05,0,0)" xlink:href="#ai"/><use transform="matrix(0.05,0,0,0.05,12,0)" xlink:href="#aC"/><use transform="matrix(0.05,0,0,0.05,22,0)" xlink:href="#aC"/><use transform="matrix(0.05,0,0,0.05,32,0)" xlink:href="#aB"/><use transform="matrix(0.05,0,0,0.05,37.95,0)" xlink:href="#ak"/><use transform="matrix(0.05,0,0,0.05,47.95,0)" xlink:href="#aD"/><use transform="matrix(0.05,0,0,0.05,56.95,0)" xlink:href="#aD"/></g><path fill="#3a414a" d="M76-208v77h127v40H76V0H24v-248h183v40H76" id="aE"/><path fill="#3a414a" d="M185-48c-13 30-37 53-82 52C43 2 14-33 14-96s30-98 90-98c62 0 83 45 84 108H66c0 31 8 55 39 56 18 0 30-7 34-22zm-45-69c5-46-57-63-70-21-2 6-4 13-4 21h74" id="aF"/><path fill="#3a414a" d="M88-194c31-1 46 15 58 34l-1-101h50l1 261h-48c-2-10 0-23-3-31C134-8 116 4 84 4 32 4 16-41 15-95c0-56 19-97 73-99zm17 164c33 0 40-30 41-66 1-37-9-64-41-64s-38 30-39 65c0 43 13 65 39 65" id="aG"/><path fill="#3a414a" d="M135-194c52 0 70 43 70 98 0 56-19 99-73 100-30 1-46-15-58-35L72 0H24l1-261h50v104c11-23 29-37 60-37zM114-30c31 0 40-27 40-66 0-37-7-63-39-63s-41 28-41 65c0 36 8 64 40 64" id="aH"/><path fill="#3a414a" d="M133-34C117-15 103 5 69 4 32 3 11-16 11-54c-1-60 55-63 116-61 1-26-3-47-28-47-18 1-26 9-28 27l-52-2c7-38 36-58 82-57s74 22 75 68l1 82c-1 14 12 18 25 15v27c-30 8-71 5-69-32zm-48 3c29 0 43-24 42-57-32 0-66-3-65 30 0 17 8 27 23 27" id="aI"/><path fill="#3a414a" d="M190-63c-7 42-38 67-86 67-59 0-84-38-90-98-12-110 154-137 174-36l-49 2c-2-19-15-32-35-32-30 0-35 28-38 64-6 74 65 87 74 30" id="aJ"/><path fill="#3a414a" d="M147 0L96-86 75-71V0H25v-261h50v150l67-79h53l-66 74L201 0h-54" id="aK"/><g id="j"><use transform="matrix(0.05,0,0,0.05,0,0)" xlink:href="#aE"/><use transform="matrix(0.05,0,0,0.05,10.950000000000001,0)" xlink:href="#aF"/><use transform="matrix(0.05,0,0,0.05,20.950000000000003,0)" xlink:href="#aF"/><use transform="matrix(0.05,0,0,0.05,30.950000000000003,0)" xlink:href="#aG"/><use transform="matrix(0.05,0,0,0.05,41.900000000000006,0)" xlink:href="#aH"/><use transform="matrix(0.05,0,0,0.05,52.85,0)" xlink:href="#aI"/><use transform="matrix(0.05,0,0,0.05,62.85,0)" xlink:href="#aJ"/><use transform="matrix(0.05,0,0,0.05,72.85000000000001,0)" xlink:href="#aK"/></g><g id="k"><use transform="matrix(0.05,0,0,0.05,0,0)" xlink:href="#aE"/><use transform="matrix(0.05,0,0,0.05,10.950000000000001,0)" xlink:href="#aF"/><use transform="matrix(0.05,0,0,0.05,20.950000000000003,0)" xlink:href="#aF"/><use transform="matrix(0.05,0,0,0.05,30.950000000000003,0)" xlink:href="#aG"/><use transform="matrix(0.05,0,0,0.05,41.900000000000006,0)" xlink:href="#aH"/><use transform="matrix(0.05,0,0,0.05,52.85,0)" xlink:href="#aI"/><use transform="matrix(0.05,0,0,0.05,62.85,0)" xlink:href="#aJ"/><use transform="matrix(0.05,0,0,0.05,72.85000000000001,0)" xlink:href="#aK"/><use transform="matrix(0.05,0,0,0.05,82.85000000000001,0)" xlink:href="#af"/><use transform="matrix(0.05,0,0,0.05,87.85000000000001,0)" xlink:href="#ag"/></g><path fill="#3a414a" d="M127-220V0H93v-220H8v-28h204v28h-85" id="aL"/><g id="l"><use transform="matrix(0.05,0,0,0.05,0,0)" xlink:href="#aL"/><use transform="matrix(0.05,0,0,0.05,8.950000000000001,0)" xlink:href="#ax"/><use transform="matrix(0.05,0,0,0.05,18.950000000000003,0)" xlink:href="#az"/><use transform="matrix(0.05,0,0,0.05,28.950000000000003,0)" xlink:href="#aB"/><use transform="matrix(0.05,0,0,0.05,34.900000000000006,0)" xlink:href="#at"/><use transform="matrix(0.05,0,0,0.05,38.85000000000001,0)" xlink:href="#aD"/><use transform="matrix(0.05,0,0,0.05,47.85000000000001,0)" xlink:href="#am"/><use transform="matrix(0.05,0,0,0.05,52.85,0)" xlink:href="#an"/><use transform="matrix(0.05,0,0,0.05,57.85,0)" xlink:href="#ao"/></g><path fill="#3a414a" d="M233-177c-1 41-23 64-60 70L243 0h-38l-65-103H63V0H30v-248c88 3 205-21 203 71zM63-129c60-2 137 13 137-47 0-61-80-42-137-45v92" id="aM"/><g id="m"><use transform="matrix(0.05,0,0,0.05,0,0)" xlink:href="#aM"/><use transform="matrix(0.05,0,0,0.05,12.950000000000001,0)" xlink:href="#aq"/><use transform="matrix(0.05,0,0,0.05,22.950000000000003,0)" xlink:href="#am"/><use transform="matrix(0.05,0,0,0.05,27.950000000000003,0)" xlink:href="#at"/><use transform="matrix(0.05,0,0,0.05,31.900000000000002,0)" xlink:href="#al"/><use transform="matrix(0.05,0,0,0.05,41.900000000000006,0)" xlink:href="#aj"/></g><path fill="#3a414a" d="M212-179c-10-28-35-45-73-45-59 0-87 40-87 99 0 60 29 101 89 101 43 0 62-24 78-52l27 14C228-24 195 4 139 4 59 4 22-46 18-125c-6-104 99-153 187-111 19 9 31 26 39 46" id="aN"/><g id="n"><use transform="matrix(0.05,0,0,0.05,0,0)" xlink:href="#aN"/><use transform="matrix(0.05,0,0,0.05,12.950000000000001,0)" xlink:href="#ax"/><use transform="matrix(0.05,0,0,0.05,22.950000000000003,0)" xlink:href="#ar"/><use transform="matrix(0.05,0,0,0.05,37.900000000000006,0)" xlink:href="#ar"/><use transform="matrix(0.05,0,0,0.05,52.85,0)" xlink:href="#ak"/><use transform="matrix(0.05,0,0,0.05,62.85,0)" xlink:href="#al"/><use transform="matrix(0.05,0,0,0.05,72.85000000000001,0)" xlink:href="#am"/><use transform="matrix(0.05,0,0,0.05,77.85000000000001,0)" xlink:href="#aD"/></g><path fill="#3a414a" d="M185-189c-5-48-123-54-124 2 14 75 158 14 163 119 3 78-121 87-175 55-17-10-28-26-33-46l33-7c5 56 141 63 141-1 0-78-155-14-162-118-5-82 145-84 179-34 5 7 8 16 11 25" id="aO"/><path fill="#3a414a" d="M96-169c-40 0-48 33-48 73s9 75 48 75c24 0 41-14 43-38l32 2c-6 37-31 61-74 61-59 0-76-41-82-99-10-93 101-131 147-64 4 7 5 14 7 22l-32 3c-4-21-16-35-41-35" id="aP"/><g id="o"><use transform="matrix(0.05,0,0,0.05,0,0)" xlink:href="#aO"/><use transform="matrix(0.05,0,0,0.05,12,0)" xlink:href="#ax"/><use transform="matrix(0.05,0,0,0.05,22,0)" xlink:href="#az"/><use transform="matrix(0.05,0,0,0.05,32,0)" xlink:href="#aB"/><use transform="matrix(0.05,0,0,0.05,37.95,0)" xlink:href="#aP"/><use transform="matrix(0.05,0,0,0.05,46.95,0)" xlink:href="#ak"/></g><path fill="#3a414a" d="M182-130c37 4 62 22 62 59C244 23 116-4 24 0v-248c84 5 203-23 205 63 0 31-19 50-47 55zM76-148c40-3 101 13 101-30 0-44-60-28-101-31v61zm0 110c48-3 116 14 116-37 0-48-69-32-116-35v72" id="aQ"/><path fill="#3a414a" d="M135-194c87-1 58 113 63 194h-50c-7-57 23-157-34-157-59 0-34 97-39 157H25l-1-190h47c2 12-1 28 3 38 12-26 28-41 61-42" id="aR"/><path fill="#3a414a" d="M195-6C206 82 75 100 31 46c-4-6-6-13-8-21l49-6c3 16 16 24 34 25 40 0 42-37 40-79-11 22-30 35-61 35-53 0-70-43-70-97 0-56 18-96 73-97 30 0 46 14 59 34l2-30h47zm-90-29c32 0 41-27 41-63 0-35-9-62-40-62-32 0-39 29-40 63 0 36 9 62 39 62" id="aS"/><g id="p"><use transform="matrix(0.05,0,0,0.05,0,0)" xlink:href="#aQ"/><use transform="matrix(0.05,0,0,0.05,12.950000000000001,0)" xlink:href="#X"/><use transform="matrix(0.05,0,0,0.05,23.900000000000002,0)" xlink:href="#X"/><use transform="matrix(0.05,0,0,0.05,34.85,0)" xlink:href="#aK"/><use transform="matrix(0.05,0,0,0.05,44.85,0)" xlink:href="#aa"/><use transform="matrix(0.05,0,0,0.05,49.85,0)" xlink:href="#aR"/><use transform="matrix(0.05,0,0,0.05,60.800000000000004,0)" xlink:href="#aS"/></g><g id="q"><use transform="matrix(0.05,0,0,0.05,0,0)" xlink:href="#aQ"/><use transform="matrix(0.05,0,0,0.05,12.950000000000001,0)" xlink:href="#X"/><use transform="matrix(0.05,0,0,0.05,23.900000000000002,0)" xlink:href="#X"/><use transform="matrix(0.05,0,0,0.05,34.85,0)" xlink:href="#aK"/><use transform="matrix(0.05,0,0,0.05,44.85,0)" xlink:href="#aa"/><use transform="matrix(0.05,0,0,0.05,49.85,0)" xlink:href="#aR"/><use transform="matrix(0.05,0,0,0.05,60.800000000000004,0)" xlink:href="#aS"/><use transform="matrix(0.05,0,0,0.05,71.75,0)" xlink:href="#af"/><use transform="matrix(0.05,0,0,0.05,76.75,0)" xlink:href="#ag"/></g><path fill="#3a414a" d="M143 0L79-87 56-68V0H24v-261h32v163l83-92h37l-77 82L181 0h-38" id="aT"/><g id="r"><use transform="matrix(0.05,0,0,0.05,0,0)" xlink:href="#av"/><use transform="matrix(0.05,0,0,0.05,12,0)" xlink:href="#aq"/><use transform="matrix(0.05,0,0,0.05,22,0)" xlink:href="#aP"/><use transform="matrix(0.05,0,0,0.05,31,0)" xlink:href="#aT"/><use transform="matrix(0.05,0,0,0.05,40,0)" xlink:href="#aq"/><use transform="matrix(0.05,0,0,0.05,50,0)" xlink:href="#aj"/><use transform="matrix(0.05,0,0,0.05,60,0)" xlink:href="#ak"/><use transform="matrix(0.05,0,0,0.05,70,0)" xlink:href="#an"/><use transform="matrix(0.05,0,0,0.05,75,0)" xlink:href="#ao"/></g><g id="s"><use transform="matrix(0.05,0,0,0.05,0,0)" xlink:href="#ai"/><use transform="matrix(0.05,0,0,0.05,12,0)" xlink:href="#aj"/><use transform="matrix(0.05,0,0,0.05,22,0)" xlink:href="#ak"/><use transform="matrix(0.05,0,0,0.05,32,0)" xlink:href="#al"/><use transform="matrix(0.05,0,0,0.05,42,0)" xlink:href="#am"/><use transform="matrix(0.05,0,0,0.05,47,0)" xlink:href="#an"/><use transform="matrix(0.05,0,0,0.05,52,0)" xlink:href="#ao"/></g><g id="t"><use transform="matrix(0.05,0,0,0.05,0,0)" xlink:href="#aO"/><use transform="matrix(0.05,0,0,0.05,12,0)" xlink:href="#am"/><use transform="matrix(0.05,0,0,0.05,17,0)" xlink:href="#aq"/><use transform="matrix(0.05,0,0,0.05,27,0)" xlink:href="#am"/><use transform="matrix(0.05,0,0,0.05,32,0)" xlink:href="#az"/><use transform="matrix(0.05,0,0,0.05,42,0)" xlink:href="#aD"/></g><g id="u"><use transform="matrix(0.05,0,0,0.05,0,0)" xlink:href="#aO"/><use transform="matrix(0.05,0,0,0.05,12,0)" xlink:href="#am"/><use transform="matrix(0.05,0,0,0.05,17,0)" xlink:href="#aq"/><use transform="matrix(0.05,0,0,0.05,27,0)" xlink:href="#aB"/><use transform="matrix(0.05,0,0,0.05,32.95,0)" xlink:href="#am"/><use transform="matrix(0.05,0,0,0.05,37.95,0)" xlink:href="#ay"/><use transform="matrix(0.05,0,0,0.05,47.95,0)" xlink:href="#ao"/><use transform="matrix(0.05,0,0,0.05,60.900000000000006,0)" xlink:href="#aq"/><use transform="matrix(0.05,0,0,0.05,70.9,0)" xlink:href="#am"/><use transform="matrix(0.05,0,0,0.05,75.9,0)" xlink:href="#ak"/></g><g id="v"><use transform="matrix(0.05,0,0,0.05,0,0)" xlink:href="#as"/><use transform="matrix(0.05,0,0,0.05,12,0)" xlink:href="#al"/><use transform="matrix(0.05,0,0,0.05,22,0)" xlink:href="#aC"/><use transform="matrix(0.05,0,0,0.05,32,0)" xlink:href="#ay"/><use transform="matrix(0.05,0,0,0.05,42,0)" xlink:href="#ao"/><use transform="matrix(0.05,0,0,0.05,54.95,0)" xlink:href="#aq"/><use transform="matrix(0.05,0,0,0.05,64.95,0)" xlink:href="#am"/><use transform="matrix(0.05,0,0,0.05,69.95,0)" xlink:href="#ak"/></g><path fill="#3a414a" d="M24-248c93 1 206-16 204 79-1 75-69 88-152 82V0H24v-248zm52 121c47 0 100 7 100-41 0-47-54-39-100-39v80" id="aU"/><g id="w"><use transform="matrix(0.05,0,0,0.05,0,0)" xlink:href="#aU"/><use transform="matrix(0.05,0,0,0.05,12,0)" xlink:href="#aI"/><use transform="matrix(0.05,0,0,0.05,22,0)" xlink:href="#aJ"/><use transform="matrix(0.05,0,0,0.05,32,0)" xlink:href="#aK"/><use transform="matrix(0.05,0,0,0.05,42,0)" xlink:href="#aI"/><use transform="matrix(0.05,0,0,0.05,52,0)" xlink:href="#aS"/><use transform="matrix(0.05,0,0,0.05,62.95,0)" xlink:href="#aF"/></g><g id="x"><use transform="matrix(0.05,0,0,0.05,0,0)" xlink:href="#aU"/><use transform="matrix(0.05,0,0,0.05,12,0)" xlink:href="#aI"/><use transform="matrix(0.05,0,0,0.05,22,0)" xlink:href="#aJ"/><use transform="matrix(0.05,0,0,0.05,32,0)" xlink:href="#aK"/><use transform="matrix(0.05,0,0,0.05,42,0)" xlink:href="#aI"/><use transform="matrix(0.05,0,0,0.05,52,0)" xlink:href="#aS"/><use transform="matrix(0.05,0,0,0.05,62.95,0)" xlink:href="#aF"/><use transform="matrix(0.05,0,0,0.05,72.95,0)" xlink:href="#af"/><use transform="matrix(0.05,0,0,0.05,77.95,0)" xlink:href="#ag"/></g><path fill="#3a414a" d="M179-190L93 31C79 59 56 82 12 73V49c39 6 53-20 64-50L1-190h34L92-34l54-156h33" id="aV"/><path fill="#3a414a" d="M115-194c55 1 70 41 70 98S169 2 115 4C84 4 66-9 55-30l1 105H24l-1-265h31l2 30c10-21 28-34 59-34zm-8 174c40 0 45-34 45-75s-6-73-45-74c-42 0-51 32-51 76 0 43 10 73 51 73" id="aW"/><g id="y"><use transform="matrix(0.05,0,0,0.05,0,0)" xlink:href="#aL"/><use transform="matrix(0.05,0,0,0.05,9.950000000000001,0)" xlink:href="#aV"/><use transform="matrix(0.05,0,0,0.05,18.950000000000003,0)" xlink:href="#aW"/><use transform="matrix(0.05,0,0,0.05,28.950000000000003,0)" xlink:href="#ak"/></g><g id="z"><use transform="matrix(0.05,0,0,0.05,0,0)" xlink:href="#av"/><use transform="matrix(0.05,0,0,0.05,12,0)" xlink:href="#aB"/><use transform="matrix(0.05,0,0,0.05,17.95,0)" xlink:href="#at"/><use transform="matrix(0.05,0,0,0.05,21.9,0)" xlink:href="#aP"/><use transform="matrix(0.05,0,0,0.05,30.899999999999995,0)" xlink:href="#ak"/></g><g id="A"><use transform="matrix(0.05,0,0,0.05,0,0)" xlink:href="#ao"/><use transform="matrix(0.05,0,0,0.05,12.950000000000001,0)" xlink:href="#az"/><use transform="matrix(0.05,0,0,0.05,22.950000000000003,0)" xlink:href="#aB"/><use transform="matrix(0.05,0,0,0.05,28.900000000000002,0)" xlink:href="#aq"/><use transform="matrix(0.05,0,0,0.05,38.900000000000006,0)" xlink:href="#am"/><use transform="matrix(0.05,0,0,0.05,43.900000000000006,0)" xlink:href="#at"/><use transform="matrix(0.05,0,0,0.05,47.85000000000001,0)" xlink:href="#ax"/><use transform="matrix(0.05,0,0,0.05,57.85,0)" xlink:href="#al"/></g><path fill="#3a414a" d="M199 0l-22-63H83L61 0H9l90-248h61L250 0h-51zm-33-102l-36-108c-10 38-24 72-36 108h72" id="aX"/><g id="B"><use transform="matrix(0.05,0,0,0.05,0,0)" xlink:href="#aX"/><use transform="matrix(0.05,0,0,0.05,12.950000000000001,0)" xlink:href="#aS"/><use transform="matrix(0.05,0,0,0.05,23.900000000000002,0)" xlink:href="#aF"/><use transform="matrix(0.05,0,0,0.05,33.900000000000006,0)" xlink:href="#aR"/><use transform="matrix(0.05,0,0,0.05,44.85000000000001,0)" xlink:href="#ac"/></g><g id="C"><use transform="matrix(0.05,0,0,0.05,0,0)" xlink:href="#aX"/><use transform="matrix(0.05,0,0,0.05,12.950000000000001,0)" xlink:href="#aS"/><use transform="matrix(0.05,0,0,0.05,23.900000000000002,0)" xlink:href="#aF"/><use transform="matrix(0.05,0,0,0.05,33.900000000000006,0)" xlink:href="#aR"/><use transform="matrix(0.05,0,0,0.05,44.85000000000001,0)" xlink:href="#ac"/><use transform="matrix(0.05,0,0,0.05,50.80000000000001,0)" xlink:href="#af"/><use transform="matrix(0.05,0,0,0.05,55.80000000000001,0)" xlink:href="#ag"/></g><g id="D"><use transform="matrix(0.05,0,0,0.05,0,0)" xlink:href="#ap"/><use transform="matrix(0.05,0,0,0.05,12.950000000000001,0)" xlink:href="#aq"/><use transform="matrix(0.05,0,0,0.05,22.950000000000003,0)" xlink:href="#ar"/><use transform="matrix(0.05,0,0,0.05,37.900000000000006,0)" xlink:href="#ak"/></g><g id="E"><use transform="matrix(0.05,0,0,0.05,0,0)" xlink:href="#as"/><use transform="matrix(0.05,0,0,0.05,12,0)" xlink:href="#ar"/><use transform="matrix(0.05,0,0,0.05,26.950000000000003,0)" xlink:href="#aq"/><use transform="matrix(0.05,0,0,0.05,36.95,0)" xlink:href="#at"/><use transform="matrix(0.05,0,0,0.05,40.900000000000006,0)" xlink:href="#au"/></g><g id="F"><use transform="matrix(0.05,0,0,0.05,0,0)" xlink:href="#ao"/><use transform="matrix(0.05,0,0,0.05,12.950000000000001,0)" xlink:href="#ak"/><use transform="matrix(0.05,0,0,0.05,22.950000000000003,0)" xlink:href="#aD"/><use transform="matrix(0.05,0,0,0.05,31.950000000000003,0)" xlink:href="#at"/><use transform="matrix(0.05,0,0,0.05,35.900000000000006,0)" xlink:href="#aj"/><use transform="matrix(0.05,0,0,0.05,45.900000000000006,0)" xlink:href="#al"/><use transform="matrix(0.05,0,0,0.05,55.900000000000006,0)" xlink:href="#aq"/><use transform="matrix(0.05,0,0,0.05,65.9,0)" xlink:href="#am"/><use transform="matrix(0.05,0,0,0.05,70.9,0)" xlink:href="#at"/><use transform="matrix(0.05,0,0,0.05,74.85000000000001,0)" xlink:href="#ax"/><use transform="matrix(0.05,0,0,0.05,84.85000000000001,0)" xlink:href="#al"/></g><path fill="#3a414a" d="M123 10C108 53 80 86 19 72V37c35 8 53-11 59-39L3-190h52l48 148c12-52 28-100 44-148h51" id="aY"/><path fill="#3a414a" d="M220-157c-53 9-28 100-34 157h-49v-107c1-27-5-49-29-50C55-147 81-57 75 0H25l-1-190h47c2 12-1 28 3 38 10-53 101-56 108 0 13-22 24-43 59-42 82 1 51 116 57 194h-49v-107c-1-25-5-48-29-50" id="aZ"/><g id="G"><use transform="matrix(0.05,0,0,0.05,0,0)" xlink:href="#aU"/><use transform="matrix(0.05,0,0,0.05,12,0)" xlink:href="#aI"/><use transform="matrix(0.05,0,0,0.05,22,0)" xlink:href="#aY"/><use transform="matrix(0.05,0,0,0.05,32,0)" xlink:href="#aZ"/><use transform="matrix(0.05,0,0,0.05,48,0)" xlink:href="#aF"/><use transform="matrix(0.05,0,0,0.05,58,0)" xlink:href="#aR"/><use transform="matrix(0.05,0,0,0.05,68.95,0)" xlink:href="#ac"/></g><g id="H"><use transform="matrix(0.05,0,0,0.05,0,0)" xlink:href="#aU"/><use transform="matrix(0.05,0,0,0.05,12,0)" xlink:href="#aI"/><use transform="matrix(0.05,0,0,0.05,22,0)" xlink:href="#aY"/><use transform="matrix(0.05,0,0,0.05,32,0)" xlink:href="#aZ"/><use transform="matrix(0.05,0,0,0.05,48,0)" xlink:href="#aF"/><use transform="matrix(0.05,0,0,0.05,58,0)" xlink:href="#aR"/><use transform="matrix(0.05,0,0,0.05,68.95,0)" xlink:href="#ac"/><use transform="matrix(0.05,0,0,0.05,74.9,0)" xlink:href="#af"/><use transform="matrix(0.05,0,0,0.05,79.9,0)" xlink:href="#ag"/></g><path fill="#3a414a" d="M160-131c35 5 61 23 61 61C221 17 115-2 30 0v-248c76 3 177-17 177 60 0 33-19 50-47 57zm-97-11c50-1 110 9 110-42 0-47-63-36-110-37v79zm0 115c55-2 124 14 124-45 0-56-70-42-124-44v89" id="ba"/><g id="I"><use transform="matrix(0.05,0,0,0.05,0,0)" xlink:href="#ba"/><use transform="matrix(0.05,0,0,0.05,12,0)" xlink:href="#ax"/><use transform="matrix(0.05,0,0,0.05,22,0)" xlink:href="#ax"/><use transform="matrix(0.05,0,0,0.05,32,0)" xlink:href="#aT"/><use transform="matrix(0.05,0,0,0.05,41,0)" xlink:href="#at"/><use transform="matrix(0.05,0,0,0.05,44.95,0)" xlink:href="#al"/><use transform="matrix(0.05,0,0,0.05,54.95,0)" xlink:href="#aj"/><use transform="matrix(0.05,0,0,0.05,64.95,0)" xlink:href="#an"/><use transform="matrix(0.05,0,0,0.05,69.95,0)" xlink:href="#ao"/></g><g id="J"><use transform="matrix(0.05,0,0,0.05,0,0)" xlink:href="#ai"/><use transform="matrix(0.05,0,0,0.05,12,0)" xlink:href="#ar"/><use transform="matrix(0.05,0,0,0.05,26.950000000000003,0)" xlink:href="#ax"/><use transform="matrix(0.05,0,0,0.05,36.95,0)" xlink:href="#az"/><use transform="matrix(0.05,0,0,0.05,46.95,0)" xlink:href="#al"/><use transform="matrix(0.05,0,0,0.05,56.95,0)" xlink:href="#am"/></g><g id="K"><use transform="matrix(0.05,0,0,0.05,0,0)" xlink:href="#av"/><use transform="matrix(0.05,0,0,0.05,12,0)" xlink:href="#aq"/><use transform="matrix(0.05,0,0,0.05,22,0)" xlink:href="#aV"/><use transform="matrix(0.05,0,0,0.05,31,0)" xlink:href="#ar"/><use transform="matrix(0.05,0,0,0.05,45.95,0)" xlink:href="#ak"/><use transform="matrix(0.05,0,0,0.05,55.95,0)" xlink:href="#al"/><use transform="matrix(0.05,0,0,0.05,65.95,0)" xlink:href="#am"/><use transform="matrix(0.05,0,0,0.05,70.95,0)" xlink:href="#ay"/><use transform="matrix(0.05,0,0,0.05,80.95,0)" xlink:href="#ao"/><use transform="matrix(0.05,0,0,0.05,93.9,0)" xlink:href="#aq"/><use transform="matrix(0.05,0,0,0.05,103.9,0)" xlink:href="#am"/><use transform="matrix(0.05,0,0,0.05,108.9,0)" xlink:href="#ak"/></g><path fill="#3a414a" d="M240 0l2-218c-23 76-54 145-80 218h-23L58-218 59 0H30v-248h44l77 211c21-75 51-140 76-211h43V0h-30" id="bb"/><g id="L"><use transform="matrix(0.05,0,0,0.05,0,0)" xlink:href="#av"/><use transform="matrix(0.05,0,0,0.05,12,0)" xlink:href="#aq"/><use transform="matrix(0.05,0,0,0.05,22,0)" xlink:href="#aV"/><use transform="matrix(0.05,0,0,0.05,31,0)" xlink:href="#ar"/><use transform="matrix(0.05,0,0,0.05,45.95,0)" xlink:href="#ak"/><use transform="matrix(0.05,0,0,0.05,55.95,0)" xlink:href="#al"/><use transform="matrix(0.05,0,0,0.05,65.95,0)" xlink:href="#am"/><use transform="matrix(0.05,0,0,0.05,70.95,0)" xlink:href="#ay"/><use transform="matrix(0.05,0,0,0.05,80.95,0)" xlink:href="#bb"/><use transform="matrix(0.05,0,0,0.05,95.9,0)" xlink:href="#ak"/><use transform="matrix(0.05,0,0,0.05,105.9,0)" xlink:href="#am"/><use transform="matrix(0.05,0,0,0.05,110.9,0)" xlink:href="#aw"/><use transform="matrix(0.05,0,0,0.05,120.9,0)" xlink:href="#ax"/><use transform="matrix(0.05,0,0,0.05,130.9,0)" xlink:href="#aC"/></g><g id="M"><use transform="matrix(0.05,0,0,0.05,0,0)" xlink:href="#ao"/><use transform="matrix(0.05,0,0,0.05,12.950000000000001,0)" xlink:href="#at"/><use transform="matrix(0.05,0,0,0.05,16.900000000000002,0)" xlink:href="#aD"/><use transform="matrix(0.05,0,0,0.05,25.900000000000002,0)" xlink:href="#aP"/><use transform="matrix(0.05,0,0,0.05,34.900000000000006,0)" xlink:href="#ax"/><use transform="matrix(0.05,0,0,0.05,44.900000000000006,0)" xlink:href="#az"/><use transform="matrix(0.05,0,0,0.05,54.900000000000006,0)" xlink:href="#al"/><use transform="matrix(0.05,0,0,0.05,64.9,0)" xlink:href="#am"/></g><path fill="#3a414a" d="M135-194c53 0 70 44 70 98 0 56-19 98-73 100-31 1-45-17-59-34 3 33 2 69 2 105H25l-1-265h48c2 10 0 23 3 31 11-24 29-35 60-35zM114-30c33 0 39-31 40-66 0-38-9-64-40-64-56 0-55 130 0 130" id="bc"/><g id="N"><use transform="matrix(0.05,0,0,0.05,0,0)" xlink:href="#W"/><use transform="matrix(0.05,0,0,0.05,9.950000000000001,0)" xlink:href="#Z"/><use transform="matrix(0.05,0,0,0.05,16.950000000000003,0)" xlink:href="#aI"/><use transform="matrix(0.05,0,0,0.05,26.950000000000003,0)" xlink:href="#aR"/><use transform="matrix(0.05,0,0,0.05,37.900000000000006,0)" xlink:href="#ab"/><use transform="matrix(0.05,0,0,0.05,47.900000000000006,0)" xlink:href="#bc"/><use transform="matrix(0.05,0,0,0.05,58.85,0)" xlink:href="#X"/><use transform="matrix(0.05,0,0,0.05,69.80000000000001,0)" xlink:href="#Z"/><use transform="matrix(0.05,0,0,0.05,76.80000000000001,0)" xlink:href="#ac"/><use transform="matrix(0.05,0,0,0.05,82.75000000000001,0)" xlink:href="#aI"/><use transform="matrix(0.05,0,0,0.05,92.75000000000001,0)" xlink:href="#ac"/><use transform="matrix(0.05,0,0,0.05,98.70000000000002,0)" xlink:href="#aa"/><use transform="matrix(0.05,0,0,0.05,103.7,0)" xlink:href="#X"/><use transform="matrix(0.05,0,0,0.05,114.65000000000003,0)" xlink:href="#aR"/></g><path fill="#3a414a" d="M147 0H94L2-248h55l64 206c17-72 42-137 63-206h54" id="bd"/><path fill="#3a414a" d="M114-157C55-157 80-60 75 0H25v-261h50l-1 109c12-26 28-41 61-42 86-1 58 113 63 194h-50c-7-57 23-157-34-157" id="be"/><path fill="#3a414a" d="M25 0v-261h50V0H25" id="bf"/><path fill="#3a414a" d="M-4 44V30h207v14H-4" id="bg"/><path fill="#3a414a" d="M240-174c0 40-23 61-54 70L253 0h-59l-57-94H76V0H24v-248c93 4 217-23 216 74zM76-134c48-2 112 12 112-38 0-48-66-32-112-35v73" id="bh"/><path fill="#3a414a" d="M175 0L67-191c6 58 2 128 3 191H24v-248h59L193-55c-6-58-2-129-3-193h46V0h-61" id="bi"/><g id="O"><use transform="matrix(0.05,0,0,0.05,0,0)" xlink:href="#bd"/><use transform="matrix(0.05,0,0,0.05,11,0)" xlink:href="#aF"/><use transform="matrix(0.05,0,0,0.05,21,0)" xlink:href="#be"/><use transform="matrix(0.05,0,0,0.05,31.950000000000003,0)" xlink:href="#aa"/><use transform="matrix(0.05,0,0,0.05,36.95,0)" xlink:href="#aJ"/><use transform="matrix(0.05,0,0,0.05,46.95,0)" xlink:href="#bf"/><use transform="matrix(0.05,0,0,0.05,51.95,0)" xlink:href="#aF"/><use transform="matrix(0.05,0,0,0.05,61.95,0)" xlink:href="#bg"/><use transform="matrix(0.05,0,0,0.05,71.95,0)" xlink:href="#bh"/><use transform="matrix(0.05,0,0,0.05,84.9,0)" xlink:href="#aF"/><use transform="matrix(0.05,0,0,0.05,94.9,0)" xlink:href="#aS"/><use transform="matrix(0.05,0,0,0.05,105.85000000000001,0)" xlink:href="#aa"/><use transform="matrix(0.05,0,0,0.05,110.85000000000001,0)" xlink:href="#ab"/><use transform="matrix(0.05,0,0,0.05,120.85000000000001,0)" xlink:href="#ac"/><use transform="matrix(0.05,0,0,0.05,126.80000000000001,0)" xlink:href="#Z"/><use transform="matrix(0.05,0,0,0.05,133.8,0)" xlink:href="#aI"/><use transform="matrix(0.05,0,0,0.05,143.8,0)" xlink:href="#ac"/><use transform="matrix(0.05,0,0,0.05,149.75,0)" xlink:href="#aa"/><use transform="matrix(0.05,0,0,0.05,154.75,0)" xlink:href="#X"/><use transform="matrix(0.05,0,0,0.05,165.7,0)" xlink:href="#aR"/><use transform="matrix(0.05,0,0,0.05,176.64999999999998,0)" xlink:href="#bg"/><use transform="matrix(0.05,0,0,0.05,186.64999999999998,0)" xlink:href="#bi"/><use transform="matrix(0.05,0,0,0.05,199.59999999999997,0)" xlink:href="#Y"/><use transform="matrix(0.05,0,0,0.05,210.54999999999995,0)" xlink:href="#aZ"/><use transform="matrix(0.05,0,0,0.05,226.54999999999995,0)" xlink:href="#aH"/><use transform="matrix(0.05,0,0,0.05,237.49999999999991,0)" xlink:href="#aF"/><use transform="matrix(0.05,0,0,0.05,247.49999999999991,0)" xlink:href="#Z"/></g><path fill="#3a414a" d="M137 0h-34L2-248h35l83 218 83-218h36" id="bj"/><g id="P"><use transform="matrix(0.05,0,0,0.05,0,0)" xlink:href="#bj"/><use transform="matrix(0.05,0,0,0.05,11,0)" xlink:href="#ak"/><use transform="matrix(0.05,0,0,0.05,21,0)" xlink:href="#aw"/><use transform="matrix(0.05,0,0,0.05,31,0)" xlink:href="#at"/><use transform="matrix(0.05,0,0,0.05,34.95,0)" xlink:href="#aP"/><use transform="matrix(0.05,0,0,0.05,43.95,0)" xlink:href="#au"/><use transform="matrix(0.05,0,0,0.05,47.900000000000006,0)" xlink:href="#ak"/><use transform="matrix(0.05,0,0,0.05,57.900000000000006,0)" xlink:href="#ay"/><use transform="matrix(0.05,0,0,0.05,67.9,0)" xlink:href="#aL"/><use transform="matrix(0.05,0,0,0.05,77.85000000000001,0)" xlink:href="#aV"/><use transform="matrix(0.05,0,0,0.05,86.85000000000001,0)" xlink:href="#aW"/><use transform="matrix(0.05,0,0,0.05,96.85000000000001,0)" xlink:href="#ak"/></g><path fill="#3a414a" d="M108 0H70L1-190h34L89-25l56-165h34" id="bk"/><g id="Q"><use transform="matrix(0.05,0,0,0.05,0,0)" xlink:href="#ao"/><use transform="matrix(0.05,0,0,0.05,12.950000000000001,0)" xlink:href="#aB"/><use transform="matrix(0.05,0,0,0.05,18.900000000000002,0)" xlink:href="#at"/><use transform="matrix(0.05,0,0,0.05,22.85,0)" xlink:href="#bk"/><use transform="matrix(0.05,0,0,0.05,31.85,0)" xlink:href="#ak"/><use transform="matrix(0.05,0,0,0.05,41.85,0)" xlink:href="#aB"/><use transform="matrix(0.05,0,0,0.05,47.800000000000004,0)" xlink:href="#ay"/><use transform="matrix(0.05,0,0,0.05,57.800000000000004,0)" xlink:href="#ap"/><use transform="matrix(0.05,0,0,0.05,70.75,0)" xlink:href="#aq"/><use transform="matrix(0.05,0,0,0.05,80.75,0)" xlink:href="#ar"/><use transform="matrix(0.05,0,0,0.05,95.7,0)" xlink:href="#ak"/></g><g id="R"><use transform="matrix(0.05,0,0,0.05,0,0)" xlink:href="#ao"/><use transform="matrix(0.05,0,0,0.05,12.950000000000001,0)" xlink:href="#aB"/><use transform="matrix(0.05,0,0,0.05,18.900000000000002,0)" xlink:href="#at"/><use transform="matrix(0.05,0,0,0.05,22.85,0)" xlink:href="#bk"/><use transform="matrix(0.05,0,0,0.05,31.85,0)" xlink:href="#ak"/><use transform="matrix(0.05,0,0,0.05,41.85,0)" xlink:href="#aB"/><use transform="matrix(0.05,0,0,0.05,47.800000000000004,0)" xlink:href="#ay"/><use transform="matrix(0.05,0,0,0.05,57.800000000000004,0)" xlink:href="#av"/><use transform="matrix(0.05,0,0,0.05,69.80000000000001,0)" xlink:href="#aw"/><use transform="matrix(0.05,0,0,0.05,79.80000000000001,0)" xlink:href="#ax"/><use transform="matrix(0.05,0,0,0.05,89.80000000000001,0)" xlink:href="#al"/><use transform="matrix(0.05,0,0,0.05,99.80000000000001,0)" xlink:href="#ak"/><use transform="matrix(0.05,0,0,0.05,109.80000000000001,0)" xlink:href="#ay"/><use transform="matrix(0.05,0,0,0.05,119.80000000000001,0)" xlink:href="#ap"/><use transform="matrix(0.05,0,0,0.05,132.75,0)" xlink:href="#az"/><use transform="matrix(0.05,0,0,0.05,142.75,0)" xlink:href="#ar"/><use transform="matrix(0.05,0,0,0.05,157.7,0)" xlink:href="#aA"/><use transform="matrix(0.05,0,0,0.05,167.7,0)" xlink:href="#ak"/><use transform="matrix(0.05,0,0,0.05,177.7,0)" xlink:href="#aB"/></g><g id="S"><use transform="matrix(0.05,0,0,0.05,0,0)" xlink:href="#aX"/><use transform="matrix(0.05,0,0,0.05,12.950000000000001,0)" xlink:href="#aJ"/><use transform="matrix(0.05,0,0,0.05,22.950000000000003,0)" xlink:href="#aJ"/><use transform="matrix(0.05,0,0,0.05,32.95,0)" xlink:href="#X"/><use transform="matrix(0.05,0,0,0.05,43.900000000000006,0)" xlink:href="#aZ"/><use transform="matrix(0.05,0,0,0.05,59.900000000000006,0)" xlink:href="#aZ"/><use transform="matrix(0.05,0,0,0.05,75.9,0)" xlink:href="#X"/><use transform="matrix(0.05,0,0,0.05,86.85000000000001,0)" xlink:href="#aG"/><use transform="matrix(0.05,0,0,0.05,97.80000000000001,0)" xlink:href="#aI"/><use transform="matrix(0.05,0,0,0.05,107.80000000000001,0)" xlink:href="#ac"/><use transform="matrix(0.05,0,0,0.05,113.75,0)" xlink:href="#aa"/><use transform="matrix(0.05,0,0,0.05,118.75,0)" xlink:href="#X"/><use transform="matrix(0.05,0,0,0.05,129.70000000000002,0)" xlink:href="#aR"/></g><g id="T"><use transform="matrix(0.05,0,0,0.05,0,0)" xlink:href="#aX"/><use transform="matrix(0.05,0,0,0.05,12.950000000000001,0)" xlink:href="#aJ"/><use transform="matrix(0.05,0,0,0.05,22.950000000000003,0)" xlink:href="#aJ"/><use transform="matrix(0.05,0,0,0.05,32.95,0)" xlink:href="#X"/><use transform="matrix(0.05,0,0,0.05,43.900000000000006,0)" xlink:href="#aZ"/><use transform="matrix(0.05,0,0,0.05,59.900000000000006,0)" xlink:href="#aZ"/><use transform="matrix(0.05,0,0,0.05,75.9,0)" xlink:href="#X"/><use transform="matrix(0.05,0,0,0.05,86.85000000000001,0)" xlink:href="#aG"/><use transform="matrix(0.05,0,0,0.05,97.80000000000001,0)" xlink:href="#aI"/><use transform="matrix(0.05,0,0,0.05,107.80000000000001,0)" xlink:href="#ac"/><use transform="matrix(0.05,0,0,0.05,113.75,0)" xlink:href="#aa"/><use transform="matrix(0.05,0,0,0.05,118.75,0)" xlink:href="#X"/><use transform="matrix(0.05,0,0,0.05,129.70000000000002,0)" xlink:href="#aR"/><use transform="matrix(0.05,0,0,0.05,140.65,0)" xlink:href="#af"/><use transform="matrix(0.05,0,0,0.05,145.65,0)" xlink:href="#ag"/></g><g id="U"><use transform="matrix(0.05,0,0,0.05,0,0)" xlink:href="#av"/><use transform="matrix(0.05,0,0,0.05,12,0)" xlink:href="#aq"/><use transform="matrix(0.05,0,0,0.05,22,0)" xlink:href="#aP"/><use transform="matrix(0.05,0,0,0.05,31,0)" xlink:href="#aT"/><use transform="matrix(0.05,0,0,0.05,40,0)" xlink:href="#aq"/><use transform="matrix(0.05,0,0,0.05,50,0)" xlink:href="#aj"/><use transform="matrix(0.05,0,0,0.05,60,0)" xlink:href="#ak"/><use transform="matrix(0.05,0,0,0.05,70,0)" xlink:href="#an"/><use transform="matrix(0.05,0,0,0.05,75,0)" xlink:href="#ao"/></g><g id="V"><use transform="matrix(0.05,0,0,0.05,0,0)" xlink:href="#aN"/><use transform="matrix(0.05,0,0,0.05,12.950000000000001,0)" xlink:href="#aq"/><use transform="matrix(0.05,0,0,0.05,22.950000000000003,0)" xlink:href="#aW"/><use transform="matrix(0.05,0,0,0.05,32.95,0)" xlink:href="#aq"/><use transform="matrix(0.05,0,0,0.05,42.95,0)" xlink:href="#aP"/><use transform="matrix(0.05,0,0,0.05,51.95,0)" xlink:href="#at"/><use transform="matrix(0.05,0,0,0.05,55.900000000000006,0)" xlink:href="#am"/><use transform="matrix(0.05,0,0,0.05,60.900000000000006,0)" xlink:href="#aV"/></g></defs></g></svg>